<svg id="visual" viewBox="0 0 900 600" width="900" height="600" xmlns="http://www.w3.org/2000/svg" xmlns:xlink="http://www.w3.org/1999/xlink" version="1.1"><g stroke-width="1" stroke-linejoin="bevel"><path d="M433 279L537 295L486 178Z" fill="#39424b" stroke="#39424b"></path><path d="M572 83L484 117L486 178Z" fill="#b5b7b8" stroke="#b5b7b8"></path><path d="M486 178L360 181L433 279Z" fill="#4c535c" stroke="#4c535c"></path><path d="M484 117L360 181L486 178Z" fill="#00101c" stroke="#00101c"></path><path d="M537 295L629 193L486 178Z" fill="#4c535c" stroke="#4c535c"></path><path d="M597 402L629 323L537 295Z" fill="#cccccc" stroke="#cccccc"></path><path d="M537 295L662 239L629 193Z" fill="#74797f" stroke="#74797f"></path><path d="M360 181L322 233L433 279Z" fill="#00101c" stroke="#00101c"></path><path d="M629 323L662 239L537 295Z" fill="#4c535c" stroke="#4c535c"></path><path d="M404 419L503 422L433 279Z" fill="#39424b" stroke="#39424b"></path><path d="M433 279L503 422L537 295Z" fill="#60666d" stroke="#60666d"></path><path d="M534 0L437 75L484 117Z" fill="#39424b" stroke="#39424b"></path><path d="M484 117L437 75L360 181Z" fill="#74797f" stroke="#74797f"></path><path d="M181 224L271 267L322 233Z" fill="#8a8d92" stroke="#8a8d92"></path><path d="M605 0L572 83L675 0Z" fill="#60666d" stroke="#60666d"></path><path d="M629 193L572 83L486 178Z" fill="#b5b7b8" stroke="#b5b7b8"></path><path d="M503 422L597 402L537 295Z" fill="#cccccc" stroke="#cccccc"></path><path d="M331 395L404 419L433 279Z" fill="#cccccc" stroke="#cccccc"></path><path d="M691 410L675 327L629 323Z" fill="#00101c" stroke="#00101c"></path><path d="M629 323L675 327L662 239Z" fill="#00101c" stroke="#00101c"></path><path d="M322 233L331 395L433 279Z" fill="#15202b" stroke="#15202b"></path><path d="M292 82L322 233L360 181Z" fill="#9fa2a5" stroke="#9fa2a5"></path><path d="M322 233L271 267L331 395Z" fill="#74797f" stroke="#74797f"></path><path d="M605 0L534 0L572 83Z" fill="#9fa2a5" stroke="#9fa2a5"></path><path d="M572 83L534 0L484 117Z" fill="#9fa2a5" stroke="#9fa2a5"></path><path d="M388 0L292 82L437 75Z" fill="#39424b" stroke="#39424b"></path><path d="M437 75L292 82L360 181Z" fill="#15202b" stroke="#15202b"></path><path d="M663 505L691 410L597 402Z" fill="#8a8d92" stroke="#8a8d92"></path><path d="M597 402L691 410L629 323Z" fill="#60666d" stroke="#60666d"></path><path d="M789 239L737 130L662 239Z" fill="#15202b" stroke="#15202b"></path><path d="M534 0L388 0L437 75Z" fill="#4c535c" stroke="#4c535c"></path><path d="M418 533L523 512L503 422Z" fill="#9fa2a5" stroke="#9fa2a5"></path><path d="M503 422L580 519L597 402Z" fill="#74797f" stroke="#74797f"></path><path d="M418 533L503 422L404 419Z" fill="#60666d" stroke="#60666d"></path><path d="M737 130L572 83L629 193Z" fill="#9fa2a5" stroke="#9fa2a5"></path><path d="M777 321L662 239L675 327Z" fill="#8a8d92" stroke="#8a8d92"></path><path d="M662 239L737 130L629 193Z" fill="#9fa2a5" stroke="#9fa2a5"></path><path d="M523 512L580 519L503 422Z" fill="#15202b" stroke="#15202b"></path><path d="M691 410L777 321L675 327Z" fill="#00101c" stroke="#00101c"></path><path d="M261 523L418 533L404 419Z" fill="#00101c" stroke="#00101c"></path><path d="M523 512L588 600L580 519Z" fill="#39424b" stroke="#39424b"></path><path d="M777 321L789 239L662 239Z" fill="#60666d" stroke="#60666d"></path><path d="M770 105L675 0L737 130Z" fill="#00101c" stroke="#00101c"></path><path d="M737 130L675 0L572 83Z" fill="#9fa2a5" stroke="#9fa2a5"></path><path d="M183 111L181 224L322 233Z" fill="#60666d" stroke="#60666d"></path><path d="M271 267L216 438L331 395Z" fill="#60666d" stroke="#60666d"></path><path d="M331 395L261 523L404 419Z" fill="#4c535c" stroke="#4c535c"></path><path d="M580 519L663 505L597 402Z" fill="#00101c" stroke="#00101c"></path><path d="M691 410L787 435L777 321Z" fill="#60666d" stroke="#60666d"></path><path d="M789 239L770 105L737 130Z" fill="#39424b" stroke="#39424b"></path><path d="M388 0L290 0L292 82Z" fill="#39424b" stroke="#39424b"></path><path d="M292 82L183 111L322 233Z" fill="#cccccc" stroke="#cccccc"></path><path d="M181 224L175 299L271 267Z" fill="#00101c" stroke="#00101c"></path><path d="M175 299L216 438L271 267Z" fill="#27313a" stroke="#27313a"></path><path d="M199 0L183 111L292 82Z" fill="#8a8d92" stroke="#8a8d92"></path><path d="M181 224L83 268L175 299Z" fill="#60666d" stroke="#60666d"></path><path d="M663 505L787 435L691 410Z" fill="#cccccc" stroke="#cccccc"></path><path d="M900 300L900 237L789 239Z" fill="#15202b" stroke="#15202b"></path><path d="M418 533L483 600L523 512Z" fill="#4c535c" stroke="#4c535c"></path><path d="M580 519L666 600L663 505Z" fill="#cccccc" stroke="#cccccc"></path><path d="M371 600L483 600L418 533Z" fill="#cccccc" stroke="#cccccc"></path><path d="M216 438L261 523L331 395Z" fill="#60666d" stroke="#60666d"></path><path d="M483 600L588 600L523 512Z" fill="#00101c" stroke="#00101c"></path><path d="M663 505L765 533L787 435Z" fill="#39424b" stroke="#39424b"></path><path d="M900 79L772 0L770 105Z" fill="#74797f" stroke="#74797f"></path><path d="M770 105L772 0L675 0Z" fill="#15202b" stroke="#15202b"></path><path d="M336 600L371 600L418 533Z" fill="#27313a" stroke="#27313a"></path><path d="M290 0L199 0L292 82Z" fill="#00101c" stroke="#00101c"></path><path d="M261 523L336 600L418 533Z" fill="#74797f" stroke="#74797f"></path><path d="M73 105L100 192L183 111Z" fill="#b5b7b8" stroke="#b5b7b8"></path><path d="M183 111L100 192L181 224Z" fill="#39424b" stroke="#39424b"></path><path d="M175 299L100 415L216 438Z" fill="#cccccc" stroke="#cccccc"></path><path d="M588 600L666 600L580 519Z" fill="#60666d" stroke="#60666d"></path><path d="M666 600L765 533L663 505Z" fill="#8a8d92" stroke="#8a8d92"></path><path d="M900 300L789 239L777 321Z" fill="#cccccc" stroke="#cccccc"></path><path d="M789 239L900 237L770 105Z" fill="#cccccc" stroke="#cccccc"></path><path d="M900 300L777 321L900 425Z" fill="#39424b" stroke="#39424b"></path><path d="M100 192L83 268L181 224Z" fill="#b5b7b8" stroke="#b5b7b8"></path><path d="M216 438L174 515L261 523Z" fill="#74797f" stroke="#74797f"></path><path d="M900 425L777 321L787 435Z" fill="#74797f" stroke="#74797f"></path><path d="M127 498L174 515L216 438Z" fill="#39424b" stroke="#39424b"></path><path d="M261 523L208 600L336 600Z" fill="#00101c" stroke="#00101c"></path><path d="M83 268L100 415L175 299Z" fill="#15202b" stroke="#15202b"></path><path d="M900 237L900 79L770 105Z" fill="#9fa2a5" stroke="#9fa2a5"></path><path d="M76 0L73 105L183 111Z" fill="#9fa2a5" stroke="#9fa2a5"></path><path d="M100 192L0 237L83 268Z" fill="#27313a" stroke="#27313a"></path><path d="M100 415L127 498L216 438Z" fill="#cccccc" stroke="#cccccc"></path><path d="M174 515L208 600L261 523Z" fill="#4c535c" stroke="#4c535c"></path><path d="M900 499L900 425L787 435Z" fill="#00101c" stroke="#00101c"></path><path d="M77 600L208 600L174 515Z" fill="#00101c" stroke="#00101c"></path><path d="M666 600L799 600L765 533Z" fill="#74797f" stroke="#74797f"></path><path d="M765 533L900 499L787 435Z" fill="#8a8d92" stroke="#8a8d92"></path><path d="M900 79L900 0L772 0Z" fill="#4c535c" stroke="#4c535c"></path><path d="M799 600L900 499L765 533Z" fill="#9fa2a5" stroke="#9fa2a5"></path><path d="M199 0L76 0L183 111Z" fill="#39424b" stroke="#39424b"></path><path d="M0 70L0 237L73 105Z" fill="#4c535c" stroke="#4c535c"></path><path d="M73 105L0 237L100 192Z" fill="#4c535c" stroke="#4c535c"></path><path d="M83 268L0 337L100 415Z" fill="#60666d" stroke="#60666d"></path><path d="M100 415L0 485L127 498Z" fill="#4c535c" stroke="#4c535c"></path><path d="M0 237L0 337L83 268Z" fill="#00101c" stroke="#00101c"></path><path d="M76 0L0 70L73 105Z" fill="#15202b" stroke="#15202b"></path><path d="M0 337L0 432L100 415Z" fill="#4c535c" stroke="#4c535c"></path><path d="M127 498L77 600L174 515Z" fill="#9fa2a5" stroke="#9fa2a5"></path><path d="M799 600L900 600L900 499Z" fill="#39424b" stroke="#39424b"></path><path d="M0 485L77 600L127 498Z" fill="#cccccc" stroke="#cccccc"></path><path d="M0 432L0 485L100 415Z" fill="#74797f" stroke="#74797f"></path><path d="M76 0L0 0L0 70Z" fill="#15202b" stroke="#15202b"></path><path d="M0 485L0 600L77 600Z" fill="#39424b" stroke="#39424b"></path></g></svg>